<svg width="40.000000" height="27.666504" viewBox="0 0 40 27.6665" fill="none" xmlns="http://www.w3.org/2000/svg" xmlns:xlink="http://www.w3.org/1999/xlink">
	<desc>
			Created with Pixso.
	</desc>
	<defs/>
	<path id="Vector" d="M39.86 14.26L34.53 7.93C34.4 7.79 34.2 7.66 34 7.66L26.66 7.66L26.66 18.33L0 18.33L0 23C0 23.39 0.26 23.66 0.66 23.66L4.53 23.66C4.46 23.86 4.46 24.13 4.46 24.33C4.46 26.19 5.93 27.66 7.79 27.66C9.66 27.66 11.13 26.19 11.13 24.33C11.13 24.13 11.13 23.86 11.06 23.66L29.4 23.66C29.33 23.86 29.33 24.13 29.33 24.33C29.33 26.19 30.79 27.66 32.66 27.66C34.53 27.66 36 26.19 36 24.33C36 24.13 36 23.86 35.93 23.66L39.33 23.66C39.73 23.66 40 23.39 40 23L40 14.73L40 14.66C40 14.53 39.93 14.39 39.86 14.26ZM37.93 14L33.33 14L33.33 11.66L35.93 11.66L37.93 14ZM7.79 26.33C6.66 26.33 5.79 25.46 5.79 24.33C5.79 24 5.86 23.66 6.06 23.33C6.4 22.73 7.06 22.33 7.79 22.33C8 22.33 8.13 22.33 8.33 22.39C8.66 22.46 9 22.66 9.2 22.93C9.33 23.06 9.4 23.19 9.53 23.33C9.73 23.66 9.79 24 9.79 24.33C9.79 25.46 8.86 26.33 7.79 26.33ZM32.66 26.33C31.53 26.33 30.66 25.46 30.66 24.33C30.66 24 30.73 23.66 30.93 23.33C31.26 22.73 31.93 22.33 32.66 22.33C32.86 22.33 33 22.33 33.2 22.39C33.53 22.46 33.86 22.66 34.06 22.93C34.2 23.06 34.26 23.19 34.4 23.33C34.59 23.66 34.66 24 34.66 24.33C34.66 25.46 33.79 26.33 32.66 26.33ZM38.66 22.33L35.33 22.33C35.33 22.26 35.26 22.26 35.26 22.19C35.2 22.13 35.13 22.06 35.06 22C35 21.93 35 21.93 34.93 21.86C34.86 21.79 34.79 21.73 34.73 21.73C34.66 21.66 34.66 21.66 34.59 21.66C34.53 21.59 34.46 21.59 34.4 21.53C34.33 21.53 34.33 21.46 34.26 21.46C34.2 21.39 34.13 21.39 34.06 21.33C34 21.33 33.93 21.26 33.93 21.26C33.86 21.26 33.79 21.19 33.66 21.19C33.59 21.19 33.53 21.19 33.53 21.13C33.46 21.13 33.33 21.06 33.26 21.06C33.2 21.06 33.2 21.06 33.13 21.06C33 21.06 32.86 21.06 32.73 21.06C32.59 21.06 32.46 21.06 32.33 21.06C32.26 21.06 32.26 21.06 32.2 21.06C32.13 21.06 32 21.06 31.93 21.13C31.86 21.13 31.79 21.13 31.79 21.19C31.73 21.19 31.66 21.26 31.53 21.26C31.46 21.26 31.4 21.33 31.4 21.33C31.33 21.39 31.26 21.39 31.2 21.46C31.13 21.46 31.13 21.53 31.06 21.53C31 21.59 30.93 21.59 30.86 21.66C30.79 21.66 30.79 21.73 30.73 21.73C30.66 21.79 30.59 21.86 30.53 21.86C30.46 21.93 30.46 21.93 30.4 22C30.33 22.06 30.26 22.13 30.2 22.19C30.2 22.26 30.13 22.26 30.13 22.33L10.46 22.33C10.46 22.26 10.4 22.26 10.4 22.19C10.33 22.13 10.26 22.06 10.2 22C10.13 21.93 10.13 21.93 10.06 21.86C10 21.79 9.93 21.73 9.86 21.73C9.79 21.66 9.79 21.66 9.73 21.66C9.66 21.59 9.59 21.59 9.53 21.53C9.46 21.53 9.46 21.46 9.4 21.46C9.33 21.39 9.26 21.39 9.2 21.33C9.13 21.33 9.06 21.26 9.06 21.26C9 21.26 8.93 21.19 8.79 21.19C8.73 21.19 8.66 21.19 8.66 21.13C8.59 21.13 8.46 21.06 8.4 21.06C8.33 21.06 8.33 21.06 8.26 21.06C8.13 21.06 8 21.06 7.86 21.06C7.73 21.06 7.59 21.06 7.46 21.06C7.4 21.06 7.4 21.06 7.33 21.06C7.26 21.06 7.13 21.06 7.06 21.13C7 21.13 6.93 21.13 6.93 21.19C6.86 21.19 6.79 21.26 6.73 21.26C6.66 21.26 6.59 21.33 6.53 21.33C6.46 21.33 6.4 21.39 6.33 21.39C6.26 21.39 6.2 21.46 6.13 21.46C6.06 21.53 6 21.53 5.93 21.59C5.86 21.66 5.79 21.66 5.79 21.73C5.73 21.79 5.73 21.79 5.66 21.86C5.59 21.93 5.53 21.93 5.53 22C5.33 22.06 5.33 22.13 5.26 22.19C5.2 22.26 5.2 22.33 5.13 22.33L1.33 22.33L1.33 19.66L27.33 19.66C27.73 19.66 28 19.39 28 19L28 9L33.66 9L34.79 10.33L32.66 10.33C32.26 10.33 32 10.59 32 11L32 14.66C32 15.06 32.26 15.33 32.66 15.33L38.66 15.33L38.66 22.33Z" fill="#E7426A" fill-opacity="1.000000" fill-rule="nonzero"/>
	<path id="Vector" d="M22.79 5.39C22.2 2.26 19.46 0 16.2 0L11 0C7.79 0 5.06 2.26 4.4 5.39C3.59 5.66 3 6.39 3 7.26C3 7.79 3.2 8.26 3.53 8.6C3.2 8.93 3 9.39 3 9.93C3 10.79 3.59 11.6 4.4 11.79C5 14.93 7.73 17.2 11 17.2L16.2 17.2C19.4 17.2 22.13 14.93 22.79 11.79C23.59 11.53 24.2 10.79 24.2 9.93C24.2 9.39 24 8.93 23.66 8.6C24 8.26 24.2 7.79 24.2 7.26C24.26 6.39 23.66 5.66 22.79 5.39ZM11 1.33L16.2 1.33C18.66 1.33 20.73 3 21.4 5.33L21.13 5.33L21 5.2C20.73 4.79 20.26 4.66 19.79 4.66L19.4 4.66C18.93 4.66 18.46 4.86 18.13 5.2C18.06 5.26 17.93 5.33 17.79 5.33L17.4 5.33C17.26 5.33 17.13 5.26 17.06 5.2C16.73 4.79 16.26 4.66 15.79 4.66L15.4 4.66C14.93 4.66 14.46 4.86 14.13 5.2C14.06 5.26 13.93 5.33 13.79 5.33L13.4 5.33C13.26 5.33 13.13 5.26 13.06 5.2C12.79 4.79 12.33 4.66 11.86 4.66L11.46 4.66C11 4.66 10.53 4.86 10.2 5.2C10.13 5.26 10 5.33 9.86 5.33L9.46 5.33C9.33 5.33 9.2 5.26 9.13 5.2C8.79 4.79 8.33 4.66 7.86 4.66L7.46 4.66C7 4.66 6.53 4.86 6.2 5.2L6.06 5.26L5.86 5.26C6.46 3 8.59 1.33 11 1.33ZM5 6.6L6.59 6.6L7.13 6.06C7.26 6 7.33 5.93 7.46 5.93L7.86 5.93C8 5.93 8.13 6 8.2 6.06C8.53 6.39 9 6.6 9.46 6.6L9.86 6.6C10.33 6.6 10.79 6.39 11.13 6.06C11.2 6 11.33 5.93 11.46 5.93L11.86 5.93C12 5.93 12.13 6 12.2 6.06C12.53 6.39 13 6.6 13.46 6.6L13.86 6.6C14.33 6.6 14.79 6.39 15.13 6.06C15.2 6 15.33 5.93 15.4 5.93L15.79 5.93C15.93 5.93 16.06 6 16.13 6.06C16.46 6.39 16.93 6.6 17.4 6.6L17.79 6.6C18.26 6.6 18.73 6.39 19.06 6.06C19.13 6 19.26 5.93 19.4 5.93L19.79 5.93C19.93 5.93 20.06 6 20.13 6.06L20.66 6.6L22.26 6.6C22.59 6.6 22.93 6.86 22.93 7.26C22.93 7.66 22.66 7.93 22.26 7.93L5 7.93C4.66 7.93 4.33 7.66 4.33 7.26C4.33 6.86 4.66 6.6 5 6.6ZM16.26 15.86L11.06 15.86C8.59 15.86 6.53 14.2 5.86 11.86L21.46 11.86C20.79 14.26 18.73 15.86 16.26 15.86ZM22.26 10.6L5 10.6C4.66 10.6 4.33 10.33 4.33 9.93C4.33 9.53 4.59 9.26 5 9.26L22.2 9.26C22.53 9.26 22.86 9.53 22.86 9.93C22.86 10.33 22.59 10.6 22.26 10.6Z" fill="#E7426A" fill-opacity="1.000000" fill-rule="nonzero"/>
</svg>
