<svg width="30.000000" height="30.000000" viewBox="0 0 30 30" fill="none" xmlns="http://www.w3.org/2000/svg" xmlns:xlink="http://www.w3.org/1999/xlink">
	<desc>
			Created with Pixso.
	</desc>
	<defs/>
	<path id="Vector" d="M11.25 0C12.92 0 14.39 0.94 15.14 2.32C15.89 1.33 17.07 0.68 18.4 0.68C20.66 0.68 22.5 2.52 22.5 4.77C22.5 5.81 22.09 6.77 21.44 7.5L29.31 7.5C29.49 7.5 29.67 7.57 29.79 7.69C29.92 7.82 30 8 30 8.18L30 14.31C30 14.49 29.92 14.67 29.79 14.8C29.67 14.92 29.49 15 29.31 15L27.61 15L27.61 29.31C27.61 29.49 27.54 29.67 27.41 29.8C27.28 29.92 27.11 30 26.93 30L3.06 30C2.88 30 2.71 29.92 2.58 29.8C2.45 29.67 2.38 29.49 2.38 29.31L2.38 15L0.68 15C0.5 15 0.32 14.92 0.2 14.8C0.07 14.67 0 14.49 0 14.31L0 8.18C0 8 0.07 7.82 0.2 7.69C0.32 7.57 0.5 7.5 0.68 7.5L8.05 7.5C7.28 6.7 6.81 5.61 6.81 4.43C6.81 1.99 8.81 0 11.25 0ZM11.25 1.36C9.54 1.36 8.18 2.72 8.18 4.43C8.18 6.13 9.54 7.5 11.25 7.5L14.31 7.5L14.31 4.77L14.31 4.43C14.31 2.72 12.95 1.36 11.25 1.36ZM18.4 2.04C16.89 2.04 15.68 3.25 15.68 4.77L15.68 7.5L18.4 7.5C19.92 7.5 21.13 6.28 21.13 4.77C21.13 3.25 19.92 2.04 18.4 2.04ZM28.63 8.86L21.47 8.86L21.47 13.63L26.93 13.63L28.63 13.63L28.63 8.86ZM20.11 8.86L9.88 8.86L9.88 13.63L20.11 13.63L20.11 8.86ZM8.52 8.86L1.36 8.86L1.36 13.63L3.06 13.63L8.52 13.63L8.52 8.86ZM26.25 15L18.4 15L18.4 28.63L26.25 28.63L26.25 15ZM17.04 15L12.95 15L12.95 28.63L17.04 28.63L17.04 15ZM11.59 15L3.75 15L3.75 28.63L11.59 28.63L11.59 15Z" fill="#E7426A" fill-opacity="1.000000" fill-rule="nonzero"/>
</svg>
