<svg width="38.000000" height="33.567383" viewBox="0 0 38 33.5674" fill="none" xmlns="http://www.w3.org/2000/svg" xmlns:xlink="http://www.w3.org/1999/xlink">
	<desc>
			Created with Pixso.
	</desc>
	<defs/>
	<path id="Vector" d="M32.58 4.63C32.08 1.94 29.76 0 27 0L22.6 0C19.89 0 17.58 1.94 17.01 4.63C16.34 4.86 15.83 5.49 15.83 6.24C15.83 6.7 16 7.1 16.28 7.38C16 7.67 15.83 8.07 15.83 8.53C15.83 9.27 16.34 9.96 17.01 10.13C17.52 12.83 19.83 14.77 22.6 14.77L27 14.77C29.71 14.77 32.02 12.83 32.58 10.13C33.26 9.9 33.77 9.27 33.77 8.53C33.77 8.07 33.6 7.67 33.32 7.38C33.6 7.1 33.77 6.7 33.77 6.24C33.83 5.49 33.32 4.86 32.58 4.63ZM22.6 1.14L27 1.14C29.09 1.14 30.84 2.57 31.4 4.58L31.17 4.58L31.06 4.46C30.84 4.12 30.44 4 30.05 4L29.71 4C29.31 4 28.92 4.18 28.64 4.46C28.58 4.52 28.47 4.58 28.35 4.58L28.01 4.58C27.9 4.58 27.79 4.52 27.73 4.46C27.45 4.12 27.06 4 26.66 4L26.32 4C25.93 4 25.53 4.18 25.25 4.46C25.19 4.52 25.08 4.58 24.97 4.58L24.63 4.58C24.52 4.58 24.4 4.52 24.35 4.46C24.12 4.12 23.73 4 23.33 4L22.99 4C22.6 4 22.2 4.18 21.92 4.46C21.87 4.52 21.75 4.58 21.64 4.58L21.3 4.58C21.19 4.58 21.08 4.52 21.02 4.46C20.74 4.12 20.34 4 19.95 4L19.61 4C19.21 4 18.82 4.18 18.54 4.46L18.42 4.52L18.25 4.52C18.76 2.57 20.57 1.14 22.6 1.14ZM17.52 5.67L18.88 5.67L19.33 5.21C19.44 5.15 19.5 5.09 19.61 5.09L19.95 5.09C20.06 5.09 20.17 5.15 20.23 5.21C20.51 5.49 20.91 5.67 21.3 5.67L21.64 5.67C22.04 5.67 22.43 5.49 22.71 5.21C22.77 5.15 22.88 5.09 22.99 5.09L23.33 5.09C23.45 5.09 23.56 5.15 23.61 5.21C23.9 5.49 24.29 5.67 24.69 5.67L25.02 5.67C25.42 5.67 25.81 5.49 26.1 5.21C26.15 5.15 26.27 5.09 26.32 5.09L26.66 5.09C26.77 5.09 26.89 5.15 26.94 5.21C27.22 5.49 27.62 5.67 28.01 5.67L28.35 5.67C28.75 5.67 29.14 5.49 29.42 5.21C29.48 5.15 29.59 5.09 29.71 5.09L30.05 5.09C30.16 5.09 30.27 5.15 30.33 5.21L30.78 5.67L32.13 5.67C32.41 5.67 32.7 5.89 32.7 6.24C32.7 6.58 32.47 6.81 32.13 6.81L17.52 6.81C17.24 6.81 16.96 6.58 16.96 6.24C16.96 5.89 17.24 5.67 17.52 5.67ZM27.06 13.63L22.66 13.63C20.57 13.63 18.82 12.2 18.25 10.19L31.46 10.19C30.89 12.25 29.14 13.63 27.06 13.63ZM32.13 9.1L17.52 9.1C17.24 9.1 16.96 8.87 16.96 8.53C16.96 8.19 17.18 7.96 17.52 7.96L32.08 7.96C32.36 7.96 32.64 8.19 32.64 8.53C32.64 8.87 32.41 9.1 32.13 9.1Z" fill="#E7426A" fill-opacity="1.000000" fill-rule="nonzero"/>
	<path id="Vector" d="M0.63 21.86L2.93 19.82C3.71 19.13 4.9 19.2 5.59 19.98L5.63 20.03C6.39 19 7.27 18.03 8.28 17.25C10.61 15.45 13.84 14.53 16.51 16.17C18 17.08 19.66 17.82 21.39 18.13L26.55 18.13C27.66 18.13 28.49 18.79 28.75 19.83L34.25 15.08C35.25 14.21 36.56 14.38 37.4 15.34C38.24 16.32 38.21 17.68 37.2 18.55L28.05 26.49C26.59 27.76 24.94 28.41 23.01 28.51L13.39 28.96C13.67 29.69 13.47 30.53 12.88 31.05L10.57 33.09C9.8 33.78 8.6 33.71 7.91 32.93L0.47 24.52C-0.22 23.75 -0.15 22.54 0.63 21.86ZM28.53 21.59C28.18 22.24 27.52 22.72 26.55 22.72L15.32 22.72C14.99 22.72 14.72 22.45 14.72 22.13C14.72 21.8 14.99 21.53 15.32 21.53L26.55 21.53C27.22 21.53 27.63 21.07 27.63 20.43C27.63 19.8 27.23 19.32 26.55 19.32L21.34 19.32L21.24 19.31C19.33 18.98 17.54 18.18 15.89 17.18C13.66 15.82 10.93 16.71 9.01 18.19C8.01 18.96 7.17 19.92 6.44 20.94L12.53 27.81L22.95 27.32C24.61 27.24 26.02 26.68 27.27 25.59L36.42 17.66C36.92 17.22 36.91 16.59 36.5 16.12C36.1 15.65 35.51 15.55 35.02 15.97L28.53 21.59ZM3.72 20.71L1.42 22.75C1.14 23 1.1 23.42 1.33 23.71L8.8 32.14C9.05 32.43 9.5 32.45 9.79 32.2L12.09 30.16C12.38 29.91 12.4 29.46 12.15 29.17C9.67 26.37 7.18 23.57 4.7 20.77C4.45 20.48 4 20.46 3.72 20.71Z" fill="#EE3686" fill-opacity="1.000000" fill-rule="nonzero"/>
	<path id="Vector" d="M4.92 19.5C4.27 19.22 3.49 19.32 2.93 19.82L0.63 21.86C-0.15 22.54 -0.22 23.75 0.47 24.52L7.91 32.93C8.6 33.71 9.8 33.78 10.57 33.09L12.88 31.05C13.21 30.76 13.41 30.37 13.48 29.96C13.54 29.63 13.51 29.29 13.39 28.96L14.42 28.91L23.01 28.51C24.94 28.41 26.59 27.76 28.05 26.49L37.2 18.55C38.21 17.68 38.24 16.32 37.4 15.34C36.56 14.38 35.25 14.21 34.25 15.08L29.57 19.12L28.75 19.83C28.66 19.47 28.5 19.16 28.29 18.9C27.89 18.41 27.28 18.13 26.55 18.13L21.39 18.13C19.66 17.82 18 17.08 16.51 16.17C13.84 14.53 10.61 15.45 8.28 17.25C7.54 17.82 6.86 18.5 6.26 19.23C6.04 19.49 5.83 19.76 5.63 20.03L5.59 19.98C5.4 19.77 5.17 19.6 4.92 19.5ZM21.34 19.32L21.24 19.31C19.33 18.98 17.54 18.18 15.89 17.18C13.66 15.82 10.93 16.71 9.01 18.19C8.01 18.96 7.17 19.92 6.44 20.94L12.53 27.81L22.95 27.32C24.61 27.24 26.02 26.68 27.27 25.59L36.42 17.66C36.92 17.22 36.91 16.59 36.5 16.12C36.1 15.65 35.51 15.55 35.02 15.97L28.53 21.59C28.18 22.24 27.52 22.72 26.55 22.72L15.32 22.72C14.99 22.72 14.72 22.45 14.72 22.13C14.72 21.8 14.99 21.53 15.32 21.53L26.55 21.53C27.22 21.53 27.63 21.07 27.63 20.43C27.63 19.8 27.23 19.32 26.55 19.32L21.34 19.32ZM3.72 20.71L1.42 22.75C1.14 23 1.1 23.42 1.33 23.71L8.8 32.14C9.05 32.43 9.5 32.45 9.79 32.2L12.09 30.16C12.38 29.91 12.4 29.46 12.15 29.17C9.67 26.37 7.18 23.57 4.7 20.77C4.45 20.48 4 20.46 3.72 20.71Z" fill="#E7426A" fill-opacity="1.000000" fill-rule="evenodd"/>
</svg>
