<svg width="24.000000" height="24.000000" viewBox="0 0 24 24" fill="none" xmlns="http://www.w3.org/2000/svg" xmlns:xlink="http://www.w3.org/1999/xlink">
	<desc>
			Created with Pixso.
	</desc>
	<defs>
		<clipPath id="clip7072_8152">
			<rect id=" Interface Layout" rx="0.000000" width="23.000000" height="23.000000" transform="translate(0.500000 0.500000)" fill="white" fill-opacity="0"/>
		</clipPath>
	</defs>
	<rect id=" Interface Layout" rx="0.000000" width="23.000000" height="23.000000" transform="translate(0.500000 0.500000)" fill="#FFFFFF" fill-opacity="0"/>
	<g clip-path="url(#clip7072_8152)">
		<path id="Vector" d="M7.71 0.85C8.66 0.85 9.42 1.62 9.42 2.57L9.42 7.71C9.42 8.66 8.66 9.42 7.71 9.42L2.57 9.42C1.62 9.42 0.85 8.66 0.85 7.71L0.85 2.57C0.85 1.62 1.62 0.85 2.57 0.85L7.71 0.85Z" stroke="#000000" stroke-opacity="1.000000" stroke-width="1.400000" stroke-linejoin="round"/>
		<path id="Vector" d="M21.42 0.85C22.37 0.85 23.14 1.62 23.14 2.57L23.14 7.71C23.14 8.66 22.37 9.42 21.42 9.42L16.28 9.42C15.33 9.42 14.57 8.66 14.57 7.71L14.57 2.57C14.57 1.62 15.33 0.85 16.28 0.85L21.42 0.85Z" stroke="#000000" stroke-opacity="1.000000" stroke-width="1.400000" stroke-linejoin="round"/>
		<path id="Vector" d="M7.71 14.57C8.66 14.57 9.42 15.33 9.42 16.28L9.42 21.42C9.42 22.37 8.66 23.14 7.71 23.14L2.57 23.14C1.62 23.14 0.85 22.37 0.85 21.42L0.85 16.28C0.85 15.33 1.62 14.57 2.57 14.57L7.71 14.57Z" stroke="#000000" stroke-opacity="1.000000" stroke-width="1.400000" stroke-linejoin="round"/>
		<path id="Vector" d="M21.42 14.57C22.37 14.57 23.14 15.33 23.14 16.28L23.14 21.42C23.14 22.37 22.37 23.14 21.42 23.14L16.28 23.14C15.33 23.14 14.57 22.37 14.57 21.42L14.57 16.28C14.57 15.33 15.33 14.57 16.28 14.57L21.42 14.57Z" stroke="#000000" stroke-opacity="1.000000" stroke-width="1.400000" stroke-linejoin="round"/>
	</g>
</svg>
