<svg width="20.000000" height="20.000000" viewBox="0 0 20 20" fill="none" xmlns="http://www.w3.org/2000/svg" xmlns:xlink="http://www.w3.org/1999/xlink">
	<desc>
			Created with Pixso.
	</desc>
	<defs/>
	<rect id="check" rx="0.000000" width="19.000000" height="19.000000" transform="translate(0.500000 0.500000)" fill="#FFFFFF" fill-opacity="0"/>
	<circle id="Ellipse" cx="10.000000" cy="10.000000" r="10.000000" fill="#E7426A" fill-opacity="1.000000"/>
	<path id="Vector" d="M14.81 7.68L13.94 6.84C13.82 6.72 13.67 6.66 13.5 6.66C13.33 6.66 13.18 6.72 13.06 6.84L8.83 10.91L6.93 9.08C6.81 8.96 6.66 8.91 6.49 8.91C6.32 8.91 6.17 8.96 6.05 9.08L5.18 9.92C5.06 10.04 5 10.18 5 10.35C5 10.51 5.06 10.65 5.18 10.77L8.39 13.86C8.51 13.97 8.66 14.03 8.83 14.03C9 14.03 9.15 13.97 9.27 13.86L14.81 8.52C14.93 8.41 15 8.27 15 8.1C15 7.93 14.93 7.79 14.81 7.68Z" fill="#FFFFFF" fill-opacity="1.000000" fill-rule="evenodd"/>
</svg>
