<svg width="6.000000" height="6.000000" viewBox="0 0 6 6" fill="none" xmlns="http://www.w3.org/2000/svg" xmlns:xlink="http://www.w3.org/1999/xlink">
	<desc>
			Created with Pixso.
	</desc>
	<defs/>
	<g opacity="0.300000">
		<path id="Vector" d="M3.99 3L5.84 1.14C6.05 0.93 6.05 0.6 5.84 0.4L5.59 0.15C5.39 -0.06 5.06 -0.06 4.85 0.15L3 2.01L1.14 0.15C0.93 -0.06 0.6 -0.06 0.4 0.15L0.15 0.4C-0.06 0.6 -0.06 0.93 0.15 1.14L2 3L0.15 4.85C-0.06 5.06 -0.06 5.39 0.15 5.59L0.4 5.84C0.6 6.05 0.93 6.05 1.14 5.84L3 3.98L4.85 5.84C5.06 6.05 5.39 6.05 5.59 5.84L5.84 5.59C6.05 5.39 6.05 5.06 5.84 4.85L3.99 3Z" fill="#292929" fill-opacity="1.000000" fill-rule="evenodd"/>
	</g>
</svg>
