<svg width="22.000000" height="12.000000" viewBox="0 0 22 12" fill="none" xmlns="http://www.w3.org/2000/svg" xmlns:xlink="http://www.w3.org/1999/xlink">
	<desc>
			Created with Pixso.
	</desc>
	<defs/>
	<path id="Vector" d="M1.05 6.96L18.38 6.96L14.66 10.34C14.25 10.72 14.25 11.33 14.66 11.71C15.07 12.09 15.74 12.09 16.16 11.71L21.68 6.68L21.68 6.68C22.1 6.3 22.1 5.69 21.68 5.31L21.68 5.31L16.16 0.28C15.74 -0.1 15.07 -0.1 14.66 0.28C14.25 0.66 14.25 1.27 14.66 1.65L18.38 5.03L1.05 5.03C0.47 5.03 0 5.46 0 6C0 6.53 0.47 6.96 1.05 6.96Z" fill="#FFFFFF" fill-opacity="1.000000" fill-rule="evenodd"/>
</svg>
