<svg width="22.000000" height="12.000000" viewBox="0 0 22 12" fill="none" xmlns="http://www.w3.org/2000/svg" xmlns:xlink="http://www.w3.org/1999/xlink">
	<desc>
			Created with Pixso.
	</desc>
	<defs/>
	<path id="Vector" d="M20.94 5.03L3.61 5.03L7.33 1.65C7.74 1.27 7.74 0.66 7.33 0.28C6.92 -0.1 6.25 -0.1 5.83 0.28L0.31 5.31L0.31 5.31C-0.11 5.69 -0.11 6.3 0.31 6.68L0.31 6.68L5.83 11.71C6.25 12.09 6.92 12.09 7.33 11.71C7.74 11.33 7.74 10.72 7.33 10.34L3.61 6.96L20.94 6.96C21.52 6.96 22 6.53 22 6C22 5.46 21.52 5.03 20.94 5.03Z" fill="#FFFFFF" fill-opacity="1.000000" fill-rule="evenodd"/>
</svg>
