<svg width="10.035156" height="10.335449" viewBox="0 0 10.0352 10.3354" fill="none" xmlns="http://www.w3.org/2000/svg" xmlns:xlink="http://www.w3.org/1999/xlink">
	<desc>
			Created with Pixso.
	</desc>
	<defs/>
	<path id="%" d="M3.63 4.63Q3.91 4.47 4.14 4.24Q4.41 3.96 4.57 3.64Q4.83 3.12 4.83 2.49Q4.83 1.81 4.55 1.28Q4.39 0.97 4.14 0.72C3.69 0.24 3.11 0 2.4 0Q1.77 0 1.27 0.25Q0.94 0.43 0.67 0.72Q0.44 0.96 0.28 1.24Q0 1.79 0 2.49Q0 3.17 0.28 3.71Q0.43 4 0.66 4.24Q0.88 4.47 1.16 4.63Q1.69 4.93 2.4 4.93Q3.1 4.93 3.63 4.63ZM1.45 10.15L2.26 10.15L8.67 0.15L7.84 0.15L1.45 10.15ZM1.74 4.04Q1.5 3.92 1.32 3.7Q1.19 3.56 1.11 3.4Q0.9 3 0.9 2.49Q0.9 1.88 1.17 1.44Q1.24 1.35 1.32 1.26C1.6 0.93 1.96 0.76 2.4 0.76C2.85 0.76 3.21 0.93 3.49 1.26Q3.59 1.36 3.67 1.49Q3.93 1.91 3.93 2.49Q3.93 2.97 3.73 3.36Q3.63 3.54 3.49 3.7C3.2 4.02 2.84 4.18 2.4 4.18Q2.03 4.18 1.74 4.04ZM8.85 10.03Q9.13 9.87 9.36 9.64C9.81 9.17 10.03 8.59 10.03 7.89Q10.03 7.19 9.74 6.64Q9.59 6.36 9.36 6.12Q9.1 5.84 8.78 5.67Q8.27 5.4 7.62 5.4Q6.99 5.4 6.49 5.65Q6.16 5.83 5.89 6.12Q5.66 6.36 5.5 6.64Q5.22 7.19 5.22 7.89C5.22 8.59 5.44 9.17 5.88 9.64Q6.1 9.87 6.38 10.03Q6.91 10.33 7.62 10.33Q8.32 10.33 8.85 10.03ZM7.62 9.58C7.18 9.58 6.81 9.42 6.52 9.1C6.24 8.77 6.1 8.37 6.1 7.89C6.1 7.39 6.24 6.98 6.52 6.66C6.8 6.33 7.17 6.16 7.62 6.16Q7.99 6.16 8.29 6.31Q8.52 6.44 8.71 6.66C9 6.98 9.15 7.39 9.15 7.89Q9.15 8.37 8.95 8.76Q8.85 8.94 8.71 9.1C8.42 9.42 8.06 9.58 7.62 9.58Z" fill="#FFFFFF" fill-opacity="1.000000" fill-rule="evenodd"/>
</svg>
