<svg width="10.000000" height="7.500000" viewBox="0 0 10 7.5" fill="none" xmlns="http://www.w3.org/2000/svg" xmlns:xlink="http://www.w3.org/1999/xlink">
	<desc>
			Created with Pixso.
	</desc>
	<defs/>
	<path id="Vector" d="M9.81 1.03L8.94 0.17C8.82 0.05 8.67 0 8.5 0C8.33 0 8.18 0.05 8.06 0.17L3.83 4.32L1.93 2.46C1.81 2.34 1.66 2.28 1.49 2.28C1.32 2.28 1.17 2.34 1.05 2.46L0.18 3.32C0.06 3.43 0 3.58 0 3.75C0 3.91 0.06 4.06 0.18 4.17L3.39 7.32C3.51 7.44 3.66 7.5 3.83 7.5C4 7.5 4.15 7.44 4.27 7.32L9.81 1.89C9.93 1.77 10 1.63 10 1.46C10 1.29 9.93 1.15 9.81 1.03Z" fill="#FFFFFF" fill-opacity="1.000000" fill-rule="evenodd"/>
</svg>
