<svg width="55.454590" height="52.312500" viewBox="0 0 55.4546 52.3125" fill="none" xmlns="http://www.w3.org/2000/svg" xmlns:xlink="http://www.w3.org/1999/xlink">
	<desc>
			Created with Pixso.
	</desc>
	<defs/>
	<path id="Vector" d="M53.61 37.02C52.84 32.95 49.26 30.05 45.09 30.05L38.32 30.05C34.16 30.05 30.58 33.05 29.8 37.02C28.74 37.31 27.96 38.27 27.96 39.44C27.96 40.11 28.25 40.69 28.64 41.18C28.25 41.66 27.96 42.24 27.96 42.92C27.96 44.08 28.74 45.05 29.8 45.34C30.58 49.4 34.16 52.31 38.32 52.31L45.09 52.31C49.26 52.31 52.84 49.31 53.61 45.34C54.68 45.05 55.45 44.08 55.45 42.92C55.45 42.24 55.16 41.66 54.77 41.18C55.16 40.69 55.45 40.11 55.45 39.44C55.45 38.37 54.68 37.31 53.61 37.02ZM38.32 31.79L45.09 31.79C48.29 31.79 51 33.92 51.87 36.92L51.58 36.92L51.38 36.73C50.9 36.24 50.32 36.05 49.74 36.05L49.26 36.05C48.68 36.05 48.09 36.24 47.61 36.73C47.51 36.82 47.32 36.92 47.22 36.92L46.74 36.92C46.55 36.92 46.45 36.82 46.35 36.73C45.87 36.24 45.29 36.05 44.71 36.05L44.22 36.05C43.64 36.05 43.06 36.24 42.58 36.73C42.48 36.82 42.29 36.92 42.19 36.92L41.71 36.92C41.51 36.92 41.42 36.82 41.32 36.73C40.84 36.24 40.26 36.05 39.67 36.05L39.19 36.05C38.61 36.05 38.03 36.24 37.55 36.73C37.45 36.82 37.25 36.92 37.16 36.92L36.67 36.92C36.48 36.92 36.38 36.82 36.29 36.73C35.8 36.24 35.22 36.05 34.64 36.05L34.16 36.05C33.58 36.05 33 36.24 32.51 36.73L31.93 36.92L31.64 36.92C32.42 33.92 35.13 31.79 38.32 31.79ZM30.58 38.66L32.61 38.66L33.29 37.98C33.38 37.89 33.58 37.79 33.67 37.79L34.16 37.79C34.35 37.79 34.45 37.89 34.55 37.98C35.03 38.47 35.61 38.66 36.19 38.66L36.77 38.66C37.35 38.66 37.93 38.47 38.42 37.98C38.51 37.89 38.71 37.79 38.8 37.79L39.29 37.79C39.48 37.79 39.58 37.89 39.67 37.98C40.16 38.47 40.74 38.66 41.32 38.66L41.8 38.66C42.38 38.66 42.97 38.47 43.45 37.98C43.55 37.89 43.74 37.79 43.84 37.79L44.51 37.79C44.71 37.79 44.8 37.89 44.9 37.98C45.38 38.47 45.97 38.66 46.55 38.66L47.03 38.66C47.61 38.66 48.19 38.47 48.68 37.98C48.77 37.89 48.97 37.79 49.06 37.79L49.55 37.79C49.74 37.79 49.84 37.89 49.93 37.98L50.61 38.66L52.64 38.66C53.13 38.66 53.51 39.05 53.51 39.53C53.51 40.02 53.13 40.4 52.64 40.4L30.58 40.4C30.09 40.4 29.71 40.02 29.71 39.53C29.71 39.05 30.09 38.66 30.58 38.66ZM45.09 50.66L38.32 50.66C35.13 50.66 32.42 48.53 31.55 45.53L51.77 45.53C51 48.53 48.29 50.66 45.09 50.66ZM52.84 43.79L30.58 43.79C30.09 43.79 29.71 43.4 29.71 42.92C29.71 42.44 30.09 42.05 30.58 42.05L52.93 42.05C53.42 42.05 53.8 42.44 53.8 42.92C53.71 43.4 53.32 43.79 52.84 43.79Z" fill="#57B6BB" fill-opacity="1.000000" fill-rule="nonzero"/>
	<path id="Vector" d="M28.84 45.76L25.35 45.76L25.35 20.8L36.67 20.8L36.67 29.21C36.96 29.21 37.25 29.21 37.55 29.21C37.93 29.21 38.22 29.21 38.51 29.31L38.51 20.9L40.35 20.9C40.84 20.9 41.32 20.42 41.32 19.93L41.32 11.32C41.32 10.83 40.84 10.35 40.35 10.35L29.61 10.35C30.48 9.38 31.06 8.03 31.06 6.58C31.06 3.48 28.55 0.96 25.45 0.96C23.61 0.96 21.96 1.83 21 3.19C19.93 1.25 17.9 0 15.58 0C12.19 0 9.48 2.7 9.48 6.09C9.48 7.74 10.16 9.19 11.22 10.35L0.96 10.35C0.48 10.35 0 10.83 0 11.32L0 19.74C0 20.22 0.48 20.71 0.96 20.71L2.8 20.71L2.8 46.63C2.8 47.12 3.29 47.6 3.77 47.6L29.51 47.6C29.22 47.02 29.03 46.44 28.84 45.76ZM39.48 12.29L39.48 18.87L25.35 18.87L25.35 12.29L39.48 12.29ZM21.67 6.67C21.67 4.54 23.32 2.9 25.45 2.9C27.58 2.9 29.22 4.54 29.22 6.67C29.22 8.8 27.58 10.45 25.45 10.45L21.67 10.45L21.67 6.67ZM15.48 1.93C17.8 1.93 19.74 3.77 19.74 6.19L19.74 10.45L15.48 10.45C13.16 10.45 11.22 8.61 11.22 6.19C11.32 3.87 13.16 1.93 15.48 1.93ZM15.96 45.76L4.74 45.76L4.74 20.8L16.06 20.8L16.06 45.76L15.96 45.76ZM15.96 18.87L1.83 18.87L1.83 12.29L15.96 12.29L15.96 18.87ZM23.51 45.76L17.9 45.76L17.9 20.8L23.51 20.8L23.51 45.76ZM23.51 18.87L17.9 18.87L17.9 12.29L23.51 12.29L23.51 18.87Z" fill="#57B6BB" fill-opacity="1.000000" fill-rule="nonzero"/>
</svg>
