<svg width="69.937500" height="55.454590" viewBox="0 0 69.9375 55.4546" fill="none" xmlns="http://www.w3.org/2000/svg" xmlns:xlink="http://www.w3.org/1999/xlink">
	<desc>
			Created with Pixso.
	</desc>
	<defs/>
	<path id="Vector" d="M44.21 5.57C43.6 2.4 40.74 0 37.48 0L32.1 0C28.84 0 25.98 2.4 25.37 5.57C24.48 5.84 23.87 6.6 23.87 7.56C23.87 8.11 24.08 8.6 24.42 8.94C24.08 9.28 23.87 9.77 23.87 10.32C23.87 11.28 24.48 12.04 25.3 12.31C25.91 15.54 28.77 17.88 32.04 17.88L37.41 17.88C40.68 17.88 43.53 15.48 44.14 12.31C44.96 12.04 45.57 11.28 45.57 10.32C45.57 9.77 45.37 9.28 45.03 8.94C45.37 8.6 45.57 8.11 45.57 7.56C45.64 6.6 45.03 5.84 44.21 5.57ZM32.1 1.37L37.48 1.37C40 1.37 42.17 3.09 42.78 5.5L42.51 5.5L42.38 5.36C42.04 5.02 41.63 4.81 41.08 4.81L40.68 4.81C40.2 4.81 39.72 5.02 39.38 5.36C39.31 5.43 39.18 5.5 39.04 5.5L38.63 5.5C38.5 5.5 38.36 5.43 38.29 5.36C37.95 5.02 37.55 4.81 37 4.81L36.59 4.81C36.12 4.81 35.64 5.02 35.3 5.36C35.23 5.43 35.1 5.5 34.96 5.5L34.55 5.5C34.42 5.5 34.28 5.43 34.21 5.36C33.87 5.02 33.46 4.81 32.92 4.81L32.51 4.81C32.04 4.81 31.56 5.02 31.22 5.36C31.15 5.43 31.02 5.5 30.88 5.5L30.47 5.5C30.33 5.5 30.2 5.43 30.13 5.36C29.79 5.02 29.38 4.81 28.84 4.81L28.43 4.81C27.95 4.81 27.48 5.02 27.14 5.36L27 5.5L26.73 5.5C27.41 3.09 29.59 1.37 32.1 1.37ZM25.91 6.88L27.55 6.88L28.09 6.32C28.23 6.26 28.36 6.19 28.43 6.19L28.84 6.19C28.97 6.19 29.11 6.26 29.18 6.32C29.52 6.67 30 6.88 30.47 6.88L30.88 6.88C31.36 6.88 31.83 6.67 32.17 6.32C32.31 6.26 32.44 6.19 32.51 6.19L32.92 6.19C33.06 6.19 33.19 6.26 33.26 6.32C33.6 6.67 34.08 6.88 34.55 6.88L34.96 6.88C35.44 6.88 35.91 6.67 36.25 6.32C36.39 6.26 36.53 6.19 36.59 6.19L37 6.19C37.14 6.19 37.27 6.26 37.34 6.32C37.68 6.67 38.16 6.88 38.63 6.88L39.04 6.88C39.52 6.88 40 6.67 40.33 6.32C40.47 6.26 40.61 6.19 40.68 6.19L41.08 6.19C41.22 6.19 41.36 6.26 41.42 6.32L41.97 6.88L43.6 6.88C44.01 6.88 44.28 7.15 44.28 7.56C44.28 7.98 44.01 8.25 43.6 8.25L25.91 8.25C25.51 8.25 25.23 7.98 25.23 7.56C25.23 7.15 25.57 6.88 25.91 6.88ZM37.48 16.51L32.1 16.51C29.59 16.51 27.41 14.79 26.8 12.38L42.85 12.38C42.17 14.79 40 16.51 37.48 16.51ZM43.6 11L25.91 11C25.51 11 25.23 10.73 25.23 10.32C25.23 9.9 25.51 9.63 25.91 9.63L43.6 9.63C44.01 9.63 44.28 9.9 44.28 10.32C44.28 10.73 44.01 11 43.6 11Z" fill="#E67285" fill-opacity="1.000000" fill-rule="nonzero"/>
	<path id="Vector" d="M20.34 43.13C19.72 39.9 16.87 37.56 13.6 37.56L8.23 37.56C4.96 37.56 2.1 39.97 1.49 43.13C0.61 43.41 0 44.17 0 45.13C0 45.68 0.2 46.16 0.54 46.51C0.2 46.85 0 47.33 0 47.88C0 48.84 0.61 49.6 1.42 49.88C2.04 53.11 4.89 55.45 8.16 55.45L13.53 55.45C16.8 55.45 19.65 53.04 20.27 49.88C21.08 49.6 21.7 48.84 21.7 47.88C21.7 47.33 21.49 46.85 21.15 46.51C21.49 46.16 21.7 45.68 21.7 45.13C21.76 44.17 21.15 43.41 20.34 43.13ZM8.23 38.94L13.6 38.94C16.12 38.94 18.29 40.66 18.91 43.07L18.63 43.07L18.5 42.93C18.16 42.58 17.68 42.38 17.21 42.38L16.8 42.38C16.32 42.38 15.85 42.58 15.51 42.93C15.44 43 15.3 43.07 15.16 43.07L14.76 43.07C14.62 43.07 14.48 43 14.42 42.93C14.08 42.58 13.6 42.38 13.12 42.38L12.72 42.38C12.24 42.38 11.76 42.58 11.42 42.93C11.36 43 11.22 43.07 11.08 43.07L10.68 43.07C10.54 43.07 10.4 43 10.34 42.93C10 42.58 9.52 42.38 9.04 42.38L8.63 42.38C8.16 42.38 7.68 42.58 7.34 42.93C7.27 43 7.14 43.07 7 43.07L6.59 43.07C6.46 43.07 6.32 43 6.25 42.93C5.91 42.58 5.44 42.38 4.96 42.38L4.55 42.38C4.08 42.38 3.6 42.58 3.26 42.93L3.12 43.07L2.85 43.07C3.53 40.66 5.71 38.94 8.23 38.94ZM2.04 44.44L3.67 44.44L4.21 43.89C4.28 43.82 4.42 43.75 4.55 43.75L4.96 43.75C5.1 43.75 5.23 43.82 5.3 43.89C5.64 44.23 6.12 44.44 6.59 44.44L7 44.44C7.48 44.44 7.95 44.23 8.29 43.89C8.36 43.82 8.5 43.75 8.63 43.75L9.04 43.75C9.18 43.75 9.31 43.82 9.38 43.89C9.72 44.23 10.2 44.44 10.68 44.44L11.08 44.44C11.56 44.44 12.04 44.23 12.38 43.89C12.44 43.82 12.58 43.75 12.72 43.75L13.12 43.75C13.26 43.75 13.4 43.82 13.46 43.89C13.8 44.23 14.28 44.44 14.76 44.44L15.16 44.44C15.64 44.44 16.12 44.23 16.46 43.89C16.53 43.82 16.66 43.75 16.8 43.75L17.21 43.75C17.34 43.75 17.48 43.82 17.55 43.89L18.09 44.44L19.72 44.44C20.13 44.44 20.4 44.72 20.4 45.13C20.4 45.54 20.13 45.82 19.72 45.82L2.04 45.82C1.63 45.82 1.36 45.54 1.36 45.13C1.36 44.72 1.63 44.44 2.04 44.44ZM13.53 54.07L8.16 54.07C5.64 54.07 3.46 52.35 2.85 49.95L18.91 49.95C18.23 52.35 16.05 54.07 13.53 54.07ZM19.72 48.57L2.04 48.57C1.63 48.57 1.36 48.29 1.36 47.88C1.36 47.47 1.63 47.19 2.04 47.19L19.72 47.19C20.13 47.19 20.4 47.47 20.4 47.88C20.4 48.23 20.13 48.57 19.72 48.57Z" fill="#E67285" fill-opacity="1.000000" fill-rule="nonzero"/>
	<path id="Vector" d="M44.42 43.13C43.8 39.9 40.95 37.56 37.68 37.56L32.31 37.56C29.04 37.56 26.19 39.97 25.57 43.13C24.76 43.41 24.14 44.17 24.14 45.13C24.14 45.68 24.35 46.16 24.69 46.51C24.35 46.85 24.14 47.33 24.14 47.88C24.14 48.84 24.76 49.6 25.57 49.88C26.19 53.11 29.04 55.45 32.31 55.45L37.68 55.45C40.95 55.45 43.8 53.04 44.42 49.88C45.23 49.6 45.85 48.84 45.85 47.88C45.85 47.33 45.64 46.85 45.3 46.51C45.64 46.16 45.85 45.68 45.85 45.13C45.85 44.17 45.23 43.41 44.42 43.13ZM32.31 38.94L37.68 38.94C40.2 38.94 42.38 40.66 42.99 43.07L42.72 43.07L42.58 42.93C42.24 42.58 41.76 42.38 41.29 42.38L40.88 42.38C40.4 42.38 39.93 42.58 39.59 42.93C39.52 43 39.38 43.07 39.25 43.07L38.84 43.07C38.7 43.07 38.57 43 38.5 42.93C38.16 42.58 37.68 42.38 37.21 42.38L36.8 42.38C36.32 42.38 35.85 42.58 35.5 42.93C35.44 43 35.3 43.07 35.16 43.07L34.76 43.07C34.62 43.07 34.48 43 34.42 42.93C34.08 42.58 33.6 42.38 33.12 42.38L32.72 42.38C32.24 42.38 31.76 42.58 31.42 42.93C31.36 43 31.22 43.07 31.08 43.07L30.68 43.07C30.54 43.07 30.4 43 30.33 42.93C29.99 42.58 29.52 42.38 29.04 42.38L28.63 42.38C28.16 42.38 27.68 42.58 27.34 42.93L27.21 43.07L26.93 43.07C27.61 40.66 29.79 38.94 32.31 38.94ZM26.12 44.44L27.75 44.44L28.29 43.89C28.36 43.82 28.5 43.75 28.63 43.75L29.04 43.75C29.18 43.75 29.31 43.82 29.38 43.89C29.72 44.23 30.2 44.44 30.68 44.44L31.08 44.44C31.56 44.44 32.04 44.23 32.38 43.89C32.44 43.82 32.58 43.75 32.72 43.75L33.12 43.75C33.26 43.75 33.4 43.82 33.46 43.89C33.8 44.23 34.28 44.44 34.76 44.44L35.16 44.44C35.64 44.44 36.12 44.23 36.46 43.89C36.53 43.82 36.66 43.75 36.8 43.75L37.21 43.75C37.34 43.75 37.48 43.82 37.55 43.89C37.89 44.23 38.36 44.44 38.84 44.44L39.25 44.44C39.72 44.44 40.2 44.23 40.54 43.89C40.61 43.82 40.74 43.75 40.88 43.75L41.29 43.75C41.42 43.75 41.56 43.82 41.63 43.89L42.17 44.44L43.8 44.44C44.21 44.44 44.48 44.72 44.48 45.13C44.48 45.54 44.21 45.82 43.8 45.82L26.12 45.82C25.71 45.82 25.44 45.54 25.44 45.13C25.44 44.72 25.78 44.44 26.12 44.44ZM37.68 54.07L32.31 54.07C29.79 54.07 27.61 52.35 27 49.95L43.06 49.95C42.38 52.35 40.2 54.07 37.68 54.07ZM43.8 48.57L26.12 48.57C25.71 48.57 25.44 48.29 25.44 47.88C25.44 47.47 25.71 47.19 26.12 47.19L43.8 47.19C44.21 47.19 44.48 47.47 44.48 47.88C44.48 48.23 44.21 48.57 43.8 48.57Z" fill="#E67285" fill-opacity="1.000000" fill-rule="nonzero"/>
	<path id="Vector" d="M68.5 43.13C67.89 39.9 65.03 37.56 61.76 37.56L56.39 37.56C53.12 37.56 50.27 39.97 49.66 43.13C48.84 43.41 48.23 44.17 48.23 45.13C48.23 45.68 48.43 46.16 48.77 46.51C48.43 46.85 48.23 47.33 48.23 47.88C48.23 48.84 48.84 49.6 49.66 49.88C50.27 53.11 53.12 55.45 56.39 55.45L61.76 55.45C65.03 55.45 67.89 53.04 68.5 49.88C69.31 49.6 69.93 48.84 69.93 47.88C69.93 47.33 69.72 46.85 69.38 46.51C69.72 46.16 69.93 45.68 69.93 45.13C70 44.17 69.38 43.41 68.5 43.13ZM56.39 38.94L61.76 38.94C64.28 38.94 66.46 40.66 67.07 43.07L66.8 43.07L66.66 42.93C66.32 42.58 65.85 42.38 65.37 42.38L64.96 42.38C64.48 42.38 64.01 42.58 63.67 42.93C63.6 43 63.46 43.07 63.33 43.07L62.92 43.07C62.78 43.07 62.65 43 62.58 42.93C62.24 42.58 61.76 42.38 61.29 42.38L60.88 42.38C60.4 42.38 59.93 42.58 59.59 42.93C59.52 43 59.38 43.07 59.25 43.07L58.84 43.07C58.7 43.07 58.57 43 58.5 42.93C58.16 42.58 57.68 42.38 57.21 42.38L56.8 42.38C56.32 42.38 55.85 42.58 55.51 42.93C55.44 43 55.3 43.07 55.17 43.07L54.76 43.07C54.62 43.07 54.48 43 54.42 42.93C54.08 42.58 53.6 42.38 53.12 42.38L52.72 42.38C52.24 42.38 51.76 42.58 51.42 42.93L51.29 43.07L51.02 43.07C51.7 40.66 53.87 38.94 56.39 38.94ZM50.27 44.44L51.9 44.44L52.44 43.89C52.51 43.82 52.65 43.75 52.78 43.75L53.19 43.75C53.33 43.75 53.46 43.82 53.53 43.89C53.87 44.23 54.35 44.44 54.83 44.44L55.23 44.44C55.71 44.44 56.19 44.23 56.53 43.89C56.59 43.82 56.73 43.75 56.87 43.75L57.27 43.75C57.41 43.75 57.55 43.82 57.61 43.89C57.95 44.23 58.43 44.44 58.91 44.44L59.31 44.44C59.79 44.44 60.27 44.23 60.61 43.89C60.68 43.82 60.81 43.75 60.95 43.75L61.36 43.75C61.49 43.75 61.63 43.82 61.7 43.89C62.04 44.23 62.51 44.44 62.99 44.44L63.4 44.44C63.87 44.44 64.35 44.23 64.69 43.89C64.76 43.82 64.89 43.75 65.03 43.75L65.44 43.75C65.57 43.75 65.71 43.82 65.78 43.89L66.32 44.44L67.95 44.44C68.36 44.44 68.63 44.72 68.63 45.13C68.63 45.54 68.36 45.82 67.95 45.82L50.27 45.82C49.86 45.82 49.59 45.54 49.59 45.13C49.59 44.72 49.86 44.44 50.27 44.44ZM61.76 54.07L56.39 54.07C53.87 54.07 51.7 52.35 51.08 49.95L67.14 49.95C66.46 52.35 64.28 54.07 61.76 54.07ZM67.95 48.57L50.27 48.57C49.86 48.57 49.59 48.29 49.59 47.88C49.59 47.47 49.86 47.19 50.27 47.19L67.95 47.19C68.36 47.19 68.63 47.47 68.63 47.88C68.63 48.23 68.29 48.57 67.95 48.57Z" fill="#E67285" fill-opacity="1.000000" fill-rule="nonzero"/>
	<path id="Vector" d="M32.38 24.35C31.76 21.12 28.91 18.78 25.64 18.78L20.27 18.78C17 18.78 14.14 21.19 13.53 24.35C12.72 24.63 12.1 25.38 12.1 26.35C12.1 26.9 12.31 27.38 12.65 27.72C12.31 28.07 12.1 28.55 12.1 29.1C12.1 30.06 12.72 30.82 13.53 31.09C14.14 34.33 17 36.67 20.27 36.67L25.64 36.67C28.91 36.67 31.76 34.26 32.38 31.09C33.19 30.82 33.8 30.06 33.8 29.1C33.8 28.55 33.6 28.07 33.26 27.72C33.6 27.38 33.8 26.9 33.8 26.35C33.8 25.38 33.19 24.56 32.38 24.35ZM20.27 20.09L25.64 20.09C28.16 20.09 30.34 21.81 30.95 24.21L30.68 24.21L30.54 24.08C30.2 23.73 29.72 23.53 29.25 23.53L28.84 23.53C28.36 23.53 27.89 23.73 27.55 24.08C27.48 24.14 27.34 24.21 27.21 24.21L26.8 24.21C26.66 24.21 26.53 24.14 26.46 24.08C26.12 23.73 25.64 23.53 25.16 23.53L24.76 23.53C24.28 23.53 23.8 23.73 23.46 24.08C23.4 24.14 23.26 24.21 23.12 24.21L22.72 24.21C22.58 24.21 22.44 24.14 22.38 24.08C22.04 23.73 21.56 23.53 21.08 23.53L20.68 23.53C20.2 23.53 19.72 23.73 19.38 24.08C19.31 24.14 19.18 24.21 19.04 24.21L18.63 24.21C18.5 24.21 18.36 24.14 18.29 24.08C17.95 23.73 17.48 23.53 17 23.53L16.59 23.53C16.12 23.53 15.64 23.73 15.3 24.08L15.16 24.21L14.89 24.21C15.57 21.81 17.75 20.09 20.27 20.09ZM14.08 25.59L15.71 25.59L16.25 25.04C16.32 24.97 16.46 24.9 16.59 24.9L17 24.9C17.14 24.9 17.27 24.97 17.34 25.04C17.68 25.38 18.16 25.59 18.63 25.59L19.04 25.59C19.52 25.59 20 25.38 20.34 25.04C20.4 24.97 20.54 24.9 20.68 24.9L21.08 24.9C21.22 24.9 21.36 24.97 21.42 25.04C21.76 25.38 22.24 25.59 22.72 25.59L23.12 25.59C23.6 25.59 24.08 25.38 24.42 25.04C24.48 24.97 24.62 24.9 24.76 24.9L25.16 24.9C25.3 24.9 25.44 24.97 25.51 25.04C25.85 25.38 26.32 25.59 26.8 25.59L27.21 25.59C27.68 25.59 28.16 25.38 28.5 25.04C28.57 24.97 28.7 24.9 28.84 24.9L29.25 24.9C29.38 24.9 29.52 24.97 29.59 25.04L30.13 25.59L31.76 25.59C32.17 25.59 32.44 25.86 32.44 26.28C32.44 26.69 32.17 26.97 31.76 26.97L14.08 26.97C13.67 26.97 13.4 26.69 13.4 26.28C13.4 25.86 13.74 25.59 14.08 25.59ZM25.64 35.22L20.27 35.22C17.75 35.22 15.57 33.5 14.96 31.09L31.02 31.09C30.27 33.5 28.16 35.22 25.64 35.22ZM31.76 29.72L14.08 29.72C13.67 29.72 13.4 29.44 13.4 29.03C13.4 28.62 13.67 28.34 14.08 28.34L31.76 28.34C32.17 28.34 32.44 28.62 32.44 29.03C32.44 29.44 32.17 29.72 31.76 29.72Z" fill="#E67285" fill-opacity="1.000000" fill-rule="nonzero"/>
	<path id="Vector" d="M56.46 24.35C55.85 21.12 52.99 18.78 49.72 18.78L44.35 18.78C41.08 18.78 38.23 21.19 37.61 24.35C36.8 24.63 36.19 25.38 36.19 26.35C36.19 26.9 36.39 27.38 36.73 27.72C36.39 28.07 36.19 28.55 36.19 29.1C36.19 30.06 36.8 30.82 37.61 31.09C38.23 34.33 41.08 36.67 44.35 36.67L49.72 36.67C52.99 36.67 55.85 34.26 56.46 31.09C57.27 30.82 57.89 30.06 57.89 29.1C57.89 28.55 57.68 28.07 57.34 27.72C57.68 27.38 57.89 26.9 57.89 26.35C57.89 25.38 57.27 24.56 56.46 24.35ZM44.35 20.09L49.72 20.09C52.24 20.09 54.42 21.81 55.03 24.21L54.76 24.21L54.62 24.08C54.28 23.73 53.8 23.53 53.33 23.53L52.92 23.53C52.44 23.53 51.97 23.73 51.63 24.08C51.56 24.14 51.42 24.21 51.29 24.21L50.88 24.21C50.74 24.21 50.61 24.14 50.54 24.08C50.2 23.73 49.72 23.53 49.25 23.53L48.84 23.53C48.36 23.53 47.89 23.73 47.55 24.08C47.48 24.14 47.34 24.21 47.21 24.21L46.8 24.21C46.66 24.21 46.53 24.14 46.46 24.08C46.12 23.73 45.64 23.53 45.16 23.53L44.76 23.53C44.28 23.53 43.8 23.73 43.46 24.08C43.4 24.14 43.26 24.21 43.12 24.21L42.72 24.21C42.58 24.21 42.44 24.14 42.38 24.08C42.04 23.73 41.56 23.53 41.08 23.53L40.68 23.53C40.2 23.53 39.72 23.73 39.38 24.08L39.25 24.21L38.97 24.21C39.65 21.81 41.83 20.09 44.35 20.09ZM38.16 25.59L39.79 25.59L40.34 25.04C40.4 24.97 40.54 24.9 40.68 24.9L41.08 24.9C41.22 24.9 41.36 24.97 41.42 25.04C41.76 25.38 42.24 25.59 42.72 25.59L43.12 25.59C43.6 25.59 44.08 25.38 44.42 25.04C44.48 24.97 44.62 24.9 44.76 24.9L45.16 24.9C45.3 24.9 45.44 24.97 45.51 25.04C45.85 25.38 46.32 25.59 46.8 25.59L47.21 25.59C47.68 25.59 48.16 25.38 48.5 25.04C48.57 24.97 48.7 24.9 48.84 24.9L49.25 24.9C49.38 24.9 49.52 24.97 49.59 25.04C49.93 25.38 50.4 25.59 50.88 25.59L51.29 25.59C51.76 25.59 52.24 25.38 52.58 25.04C52.65 24.97 52.78 24.9 52.92 24.9L53.33 24.9C53.46 24.9 53.6 24.97 53.67 25.04L54.21 25.59L55.85 25.59C56.25 25.59 56.53 25.86 56.53 26.28C56.53 26.69 56.25 26.97 55.85 26.97L38.16 26.97C37.75 26.97 37.48 26.69 37.48 26.28C37.48 25.86 37.82 25.59 38.16 25.59ZM49.72 35.22L44.35 35.22C41.83 35.22 39.65 33.5 39.04 31.09L55.1 31.09C54.42 33.5 52.24 35.22 49.72 35.22ZM55.85 29.72L38.16 29.72C37.75 29.72 37.48 29.44 37.48 29.03C37.48 28.62 37.75 28.34 38.16 28.34L55.85 28.34C56.25 28.34 56.53 28.62 56.53 29.03C56.53 29.44 56.25 29.72 55.85 29.72Z" fill="#E67285" fill-opacity="1.000000" fill-rule="nonzero"/>
</svg>
