<svg width="72.853271" height="74.069336" viewBox="0 0 72.8533 74.0693" fill="none" xmlns="http://www.w3.org/2000/svg" xmlns:xlink="http://www.w3.org/1999/xlink">
	<desc>
			Created with Pixso.
	</desc>
	<defs/>
	<path id="Vector" d="M58.3 26.5C58.96 21.4 56.73 16.74 52.35 14.05C51.94 13.8 51.53 13.56 51.1 13.33C44.36 9.65 36.3 8.93 29.01 11.34C21.61 13.79 15.73 19.05 12.46 26.16C6.64 38.8 11.14 53.91 22.93 61.31C23.43 61.63 23.93 61.92 24.44 62.2C24.8 62.4 25.17 62.58 25.53 62.76C30.15 65.03 35.46 64.39 39.39 61.1C43.51 57.65 45.13 52.25 43.63 47.01C43.63 47.01 43.63 47.01 43.63 47.01C42.97 44.73 43.08 42.76 43.97 41.14C44.85 39.53 46.44 38.37 48.71 37.69C53.93 36.12 57.6 31.84 58.3 26.5ZM41.93 40.03C40.76 42.17 40.58 44.81 41.4 47.65C42.65 52 41.3 56.47 37.9 59.33C34.64 62.06 30.4 62.56 26.55 60.68C25.75 60.29 24.95 59.84 24.16 59.35C13.36 52.56 9.23 38.71 14.57 27.13C17.57 20.61 22.96 15.79 29.73 13.54C36.42 11.33 43.81 11.99 49.99 15.37C50.37 15.58 50.76 15.79 51.13 16.03C54.72 18.23 56.54 22.03 56 26.2C55.42 30.62 52.38 34.17 48.05 35.47C45.21 36.31 43.1 37.89 41.93 40.03Z" fill="#9FCE9E" fill-opacity="1.000000" fill-rule="nonzero"/>
	<path id="Vector" d="M49.2 16.83C46.97 15.61 44.17 16.43 42.95 18.66C41.74 20.89 42.56 23.69 44.79 24.9C47.01 26.12 49.81 25.3 51.03 23.07C52.24 20.84 51.42 18.04 49.2 16.83ZM45.9 22.87C44.79 22.27 44.39 20.88 44.99 19.77C45.59 18.67 46.98 18.26 48.08 18.86C49.19 19.47 49.6 20.85 48.99 21.96C48.39 23.06 47 23.47 45.9 22.87Z" fill="#9FCE9E" fill-opacity="1.000000" fill-rule="nonzero"/>
	<path id="Vector" d="M30.75 50.62C28.52 49.41 25.72 50.23 24.51 52.46C23.29 54.68 24.12 57.48 26.34 58.7C28.57 59.91 31.37 59.09 32.58 56.86C33.8 54.64 32.98 51.84 30.75 50.62ZM27.45 56.66C26.35 56.06 25.94 54.67 26.54 53.57C27.15 52.46 28.54 52.05 29.64 52.66C30.74 53.26 31.15 54.65 30.55 55.75C29.95 56.86 28.56 57.27 27.45 56.66Z" fill="#9FCE9E" fill-opacity="1.000000" fill-rule="nonzero"/>
	<path id="Vector" d="M24.91 30.74C26.13 28.52 25.3 25.72 23.08 24.5C20.85 23.29 18.05 24.11 16.83 26.34C15.62 28.56 16.44 31.36 18.67 32.58C20.9 33.79 23.7 32.97 24.91 30.74ZM19.78 30.54C18.68 29.94 18.27 28.55 18.87 27.45C19.47 26.34 20.86 25.93 21.97 26.54C23.07 27.14 23.48 28.53 22.87 29.63C22.27 30.74 20.88 31.14 19.78 30.54Z" fill="#9FCE9E" fill-opacity="1.000000" fill-rule="nonzero"/>
	<path id="Vector" d="M18 38.77C15.57 39.49 14.17 42.05 14.89 44.49C15.23 45.67 16.02 46.64 17.1 47.23C18.17 47.82 19.42 47.95 20.6 47.6C21.78 47.26 22.75 46.47 23.34 45.39C23.93 44.31 24.06 43.07 23.71 41.89C23 39.46 20.44 38.06 18 38.77ZM19.94 45.38C18.77 45.72 17.45 45 17.11 43.83C16.76 42.63 17.45 41.36 18.66 41C19.86 40.65 21.13 41.34 21.49 42.55C21.66 43.13 21.59 43.75 21.3 44.28C21.01 44.82 20.53 45.21 19.94 45.38Z" fill="#9FCE9E" fill-opacity="1.000000" fill-rule="nonzero"/>
	<path id="Vector" d="M31.04 14.88C28.61 15.59 27.21 18.16 27.93 20.59C28.28 21.81 29.1 22.77 30.14 23.33C31.17 23.9 32.42 24.07 33.64 23.71C34.82 23.36 35.79 22.58 36.38 21.5C36.97 20.42 37.1 19.18 36.76 18C36.06 15.64 33.4 14.19 31.04 14.88ZM32.98 21.48C31.78 21.84 30.51 21.15 30.15 19.94C29.8 18.73 30.49 17.46 31.7 17.11C32.28 16.93 32.9 17 33.43 17.29C33.97 17.58 34.36 18.07 34.53 18.65C34.7 19.24 34.64 19.85 34.34 20.39C34.05 20.92 33.57 21.31 32.98 21.48Z" fill="#9FCE9E" fill-opacity="1.000000" fill-rule="nonzero"/>
	<path id="Vector" d="M63.4 42.47L65.03 36.81C66.11 36.41 67.06 35.65 67.65 34.57C68.75 32.55 68.38 26.37 68.29 25.15C68.24 24.37 67.27 23.84 66.58 24.22C65.51 24.81 60.11 27.83 59.01 29.85C58.42 30.94 58.3 32.14 58.54 33.26L54.67 37.7C54.64 37.74 54.63 37.79 54.6 37.83C54.57 37.88 54.52 37.92 54.49 37.98L43.16 62.32C42.46 63.88 43.08 65.74 44.58 66.56C46.09 67.38 47.99 66.9 48.92 65.45L63.26 42.76C63.3 42.71 63.3 42.65 63.33 42.59C63.35 42.55 63.38 42.51 63.4 42.47ZM46.97 64.2C46.69 64.62 46.13 64.77 45.69 64.53C45.25 64.28 45.07 63.74 45.27 63.29L56.07 40.07L60.64 42.57L46.97 64.2ZM57.37 38.14L59.68 35.49C60.04 35.89 60.47 36.26 60.97 36.53C61.47 36.81 62.01 36.97 62.55 37.05L61.57 40.43L57.37 38.14ZM62.08 34.5C60.82 33.81 60.36 32.22 61.04 30.96C61.5 30.13 63.9 28.49 66.07 27.18C66.16 29.72 66.07 32.62 65.62 33.46C64.93 34.72 63.34 35.19 62.08 34.5Z" fill="#9FCE9E" fill-opacity="1.000000" fill-rule="nonzero"/>
</svg>
