<svg width="58.181885" height="58.181641" viewBox="0 0 58.1819 58.1816" fill="none" xmlns="http://www.w3.org/2000/svg" xmlns:xlink="http://www.w3.org/1999/xlink">
	<desc>
			Created with Pixso.
	</desc>
	<defs/>
	<path id="Vector" d="M56.65 1.52L56.65 56.65L1.52 56.65L1.52 1.52L56.65 1.52ZM56.65 0L1.52 0C0.68 0 0 0.68 0 1.52L0 56.65C0 57.49 0.68 58.18 1.52 58.18L56.65 58.18C57.49 58.18 58.18 57.49 58.18 56.65L58.18 1.52C58.18 0.68 57.49 0 56.65 0Z" fill="#F4976E" fill-opacity="1.000000" fill-rule="nonzero"/>
	<path id="Vector" d="M29.89 16.89C29.89 16.28 29.66 15.74 29.28 15.36C29.66 14.98 29.89 14.44 29.89 13.83C29.89 12.76 29.2 11.92 28.28 11.62C27.52 8.02 24.38 5.42 20.64 5.42L14.6 5.42C10.85 5.42 7.72 8.1 7.03 11.62C6.11 11.92 5.42 12.76 5.42 13.83C5.42 14.44 5.65 14.98 6.03 15.36C5.65 15.74 5.42 16.28 5.42 16.89C5.42 17.96 6.11 18.8 7.03 19.11C7.72 22.7 10.93 25.3 14.6 25.3L20.64 25.3C24.31 25.3 27.52 22.63 28.21 19.11C29.2 18.8 29.89 17.89 29.89 16.89ZM14.6 6.95L20.64 6.95C23.47 6.95 25.91 8.86 26.6 11.54L26.3 11.54L26.14 11.39C25.76 11 25.23 10.78 24.69 10.78L24.23 10.78C23.7 10.78 23.16 11 22.78 11.39C22.7 11.46 22.55 11.54 22.4 11.54L21.94 11.54C21.78 11.54 21.63 11.46 21.56 11.39C21.17 11 20.64 10.78 20.1 10.78L19.64 10.78C19.11 10.78 18.57 11 18.19 11.39C18.11 11.46 17.96 11.54 17.81 11.54L17.35 11.54C17.2 11.54 17.04 11.46 16.97 11.39C16.59 11 16.05 10.78 15.52 10.78L15.06 10.78C14.52 10.78 13.99 11 13.6 11.39C13.53 11.46 13.37 11.54 13.22 11.54L12.76 11.54C12.61 11.54 12.46 11.46 12.38 11.39C12 11 11.46 10.78 10.93 10.78L10.47 10.78C9.93 10.78 9.4 11 9.02 11.39L8.86 11.54L8.56 11.54C9.32 8.86 11.77 6.95 14.6 6.95ZM7.72 13.07L9.55 13.07L10.16 12.46C10.24 12.38 10.39 12.3 10.55 12.3L11 12.3C11.16 12.3 11.31 12.38 11.39 12.46C11.77 12.84 12.3 13.07 12.84 13.07L13.3 13.07C13.83 13.07 14.37 12.84 14.75 12.46C14.83 12.38 14.98 12.3 15.13 12.3L15.59 12.3C15.74 12.3 15.9 12.38 15.97 12.46C16.36 12.84 16.89 13.07 17.43 13.07L17.89 13.07C18.42 13.07 18.96 12.84 19.34 12.46C19.41 12.38 19.57 12.3 19.72 12.3L20.18 12.3C20.33 12.3 20.48 12.38 20.56 12.46C20.94 12.84 21.48 13.07 22.01 13.07L22.47 13.07C23.01 13.07 23.54 12.84 23.93 12.46C24 12.38 24.15 12.3 24.31 12.3L24.77 12.3C24.92 12.3 25.07 12.38 25.15 12.46L25.76 13.07L27.6 13.07C28.05 13.07 28.36 13.37 28.36 13.83C28.36 14.29 28.05 14.6 27.6 14.6L7.72 14.6C7.26 14.6 6.95 14.29 6.95 13.83C6.95 13.37 7.26 13.07 7.72 13.07ZM7.72 16.13L27.6 16.13C28.05 16.13 28.36 16.43 28.36 16.89C28.36 17.35 28.05 17.66 27.6 17.66L7.72 17.66C7.26 17.66 6.95 17.35 6.95 16.89C6.95 16.43 7.26 16.13 7.72 16.13ZM20.64 23.77L14.6 23.77C11.77 23.77 9.32 21.86 8.63 19.18L26.68 19.18C25.91 21.86 23.47 23.77 20.64 23.77Z" fill="#F4976E" fill-opacity="1.000000" fill-rule="nonzero"/>
	<path id="Vector" d="M51.14 39.14C50.45 35.55 47.24 32.95 43.57 32.95L37.53 32.95C33.86 32.95 30.65 35.62 29.97 39.14C29.05 39.45 28.36 40.29 28.36 41.36C28.36 41.97 28.59 42.5 28.97 42.89C28.59 43.27 28.36 43.8 28.36 44.41C28.36 45.49 29.05 46.33 29.97 46.63C30.65 50.23 33.86 52.82 37.53 52.82L43.57 52.82C47.24 52.82 50.45 50.15 51.14 46.63C52.06 46.33 52.75 45.49 52.75 44.41C52.75 43.8 52.52 43.27 52.14 42.89C52.52 42.5 52.75 41.97 52.75 41.36C52.82 40.29 52.14 39.45 51.14 39.14ZM37.53 34.48L43.57 34.48C46.4 34.48 48.85 36.39 49.54 39.06L49.23 39.06L49.08 38.91C48.7 38.53 48.16 38.3 47.63 38.3L47.17 38.3C46.63 38.3 46.1 38.53 45.71 38.91C45.64 38.99 45.49 39.06 45.33 39.06L44.87 39.06C44.72 39.06 44.57 38.99 44.49 38.91C44.11 38.53 43.57 38.3 43.04 38.3L42.58 38.3C42.04 38.3 41.51 38.53 41.13 38.91C41.05 38.99 40.9 39.06 40.75 39.06L40.29 39.06C40.13 39.06 39.98 38.99 39.9 38.91C39.52 38.53 38.99 38.3 38.45 38.3L37.99 38.3C37.46 38.3 36.92 38.53 36.54 38.91C36.46 38.99 36.31 39.06 36.16 39.06L35.7 39.06C35.55 39.06 35.39 38.99 35.32 38.91C34.93 38.53 34.4 38.3 33.86 38.3L33.41 38.3C32.87 38.3 32.34 38.53 31.95 38.91L31.8 39.06L31.49 39.06C32.26 36.39 34.71 34.48 37.53 34.48ZM30.65 40.59L32.49 40.59L33.1 39.98C33.18 39.9 33.33 39.83 33.48 39.83L33.94 39.83C34.09 39.83 34.25 39.9 34.32 39.98C34.71 40.36 35.24 40.59 35.78 40.59L36.23 40.59C36.77 40.59 37.3 40.36 37.69 39.98C37.76 39.9 37.92 39.83 38.07 39.83L38.53 39.83C38.68 39.83 38.83 39.9 38.91 39.98C39.29 40.36 39.83 40.59 40.36 40.59L40.82 40.59C41.36 40.59 41.89 40.36 42.27 39.98C42.35 39.9 42.5 39.83 42.66 39.83L43.12 39.83C43.27 39.83 43.42 39.9 43.5 39.98C43.88 40.36 44.41 40.59 44.95 40.59L45.41 40.59C45.94 40.59 46.48 40.36 46.86 39.98C46.94 39.9 47.09 39.83 47.24 39.83L47.7 39.83C47.86 39.83 48.01 39.9 48.08 39.98L48.7 40.59L50.53 40.59C50.99 40.59 51.3 40.9 51.3 41.36C51.3 41.82 50.99 42.12 50.53 42.12L30.65 42.12C30.19 42.12 29.89 41.82 29.89 41.36C29.89 40.9 30.19 40.59 30.65 40.59ZM43.57 51.3L37.53 51.3C34.71 51.3 32.26 49.38 31.57 46.71L49.61 46.71C48.85 49.38 46.4 51.3 43.57 51.3ZM50.53 45.18L30.65 45.18C30.19 45.18 29.89 44.87 29.89 44.41C29.89 43.96 30.19 43.65 30.65 43.65L50.53 43.65C50.99 43.65 51.3 43.96 51.3 44.41C51.3 44.87 50.91 45.18 50.53 45.18Z" fill="#F4976E" fill-opacity="1.000000" fill-rule="nonzero"/>
	<path id="Vector" d="M19.03 29.96C18.73 29.05 17.89 28.36 16.81 28.36C16.2 28.36 15.67 28.59 15.29 28.97C14.9 28.59 14.37 28.36 13.76 28.36C12.69 28.36 11.85 29.05 11.54 29.96C7.95 30.65 5.35 33.86 5.35 37.53L5.35 43.57C5.35 47.24 8.02 50.45 11.54 51.14C11.85 52.06 12.69 52.75 13.76 52.75C14.37 52.75 14.9 52.52 15.29 52.14C15.67 52.52 16.2 52.75 16.81 52.75C17.89 52.75 18.73 52.06 19.03 51.14C22.63 50.45 25.22 47.24 25.22 43.57L25.22 37.53C25.3 33.86 22.63 30.65 19.03 29.96ZM6.95 43.57L6.95 37.53C6.95 34.71 8.86 32.26 11.54 31.57L11.54 31.88L11.39 32.03C11 32.41 10.77 32.95 10.77 33.48L10.77 33.94C10.77 34.48 11 35.01 11.39 35.39C11.46 35.47 11.54 35.62 11.54 35.78L11.54 36.23C11.54 36.39 11.46 36.54 11.39 36.62C11 37 10.77 37.53 10.77 38.07L10.77 38.53C10.77 39.06 11 39.6 11.39 39.98C11.46 40.06 11.54 40.21 11.54 40.36L11.54 40.82C11.54 40.97 11.46 41.13 11.39 41.2C11 41.59 10.77 42.12 10.77 42.66L10.77 43.12C10.77 43.65 11 44.19 11.39 44.57C11.46 44.64 11.54 44.8 11.54 44.95L11.54 45.41C11.54 45.56 11.46 45.71 11.39 45.79C11 46.17 10.77 46.71 10.77 47.24L10.77 47.7C10.77 48.24 11 48.77 11.39 49.15L11.54 49.31L11.54 49.61C8.86 48.85 6.95 46.4 6.95 43.57ZM13.83 51.3C13.37 51.3 13.07 50.99 13.07 50.53L13.07 48.7L12.46 48.08C12.38 48.01 12.3 47.86 12.3 47.7L12.3 47.24C12.3 47.09 12.38 46.94 12.46 46.86C12.84 46.48 13.07 45.94 13.07 45.41L13.07 44.95C13.07 44.41 12.84 43.88 12.46 43.5C12.38 43.42 12.3 43.27 12.3 43.12L12.3 42.66C12.3 42.5 12.38 42.35 12.46 42.27C12.84 41.89 13.07 41.36 13.07 40.82L13.07 40.36C13.07 39.83 12.84 39.29 12.46 38.91C12.38 38.83 12.3 38.68 12.3 38.53L12.3 38.07C12.3 37.92 12.38 37.76 12.46 37.69C12.84 37.3 13.07 36.77 13.07 36.23L13.07 35.78C13.07 35.24 12.84 34.71 12.46 34.32C12.38 34.25 12.3 34.09 12.3 33.94L12.3 33.48C12.3 33.33 12.38 33.18 12.46 33.1L13.07 32.49L13.07 30.65C13.07 30.19 13.37 29.89 13.83 29.89C14.29 29.89 14.6 30.19 14.6 30.65L14.6 50.53C14.6 50.91 14.22 51.3 13.83 51.3ZM17.66 50.53C17.66 50.99 17.35 51.3 16.89 51.3C16.43 51.3 16.13 50.99 16.13 50.53L16.13 30.65C16.13 30.19 16.43 29.89 16.89 29.89C17.35 29.89 17.66 30.19 17.66 30.65L17.66 50.53ZM23.77 43.57C23.77 46.4 21.86 48.85 19.18 49.54L19.18 31.57C21.86 32.26 23.77 34.71 23.77 37.53L23.77 43.57Z" fill="#F4976E" fill-opacity="1.000000" fill-rule="nonzero"/>
	<path id="Vector" d="M46.56 7.03C46.25 6.11 45.41 5.42 44.34 5.42C43.73 5.42 43.19 5.65 42.81 6.04C42.43 5.65 41.89 5.42 41.28 5.42C40.21 5.42 39.37 6.11 39.06 7.03C35.47 7.72 32.87 10.93 32.87 14.6L32.87 20.64C32.87 24.31 35.55 27.52 39.06 28.21C39.37 29.12 40.21 29.81 41.28 29.81C41.89 29.81 42.43 29.58 42.81 29.2C43.19 29.58 43.73 29.81 44.34 29.81C45.41 29.81 46.25 29.12 46.56 28.21C50.15 27.52 52.75 24.31 52.75 20.64L52.75 14.6C52.82 10.93 50.15 7.72 46.56 7.03ZM34.48 20.64L34.48 14.6C34.48 11.77 36.39 9.32 39.06 8.63L39.06 26.68C36.39 25.91 34.48 23.47 34.48 20.64ZM41.36 28.36C40.9 28.36 40.59 28.05 40.59 27.6L40.59 7.72C40.59 7.26 40.9 6.95 41.36 6.95C41.82 6.95 42.12 7.26 42.12 7.72L42.12 27.6C42.12 27.98 41.74 28.36 41.36 28.36ZM45.18 25.76L45.18 27.6C45.18 28.05 44.87 28.36 44.41 28.36C43.96 28.36 43.65 28.05 43.65 27.6L43.65 7.72C43.65 7.26 43.96 6.95 44.41 6.95C44.87 6.95 45.18 7.26 45.18 7.72L45.18 9.55L45.79 10.16C45.87 10.24 45.94 10.39 45.94 10.55L45.94 11C45.94 11.16 45.87 11.31 45.79 11.39C45.41 11.77 45.18 12.3 45.18 12.84L45.18 13.3C45.18 13.83 45.41 14.37 45.79 14.75C45.87 14.83 45.94 14.98 45.94 15.13L45.94 15.59C45.94 15.74 45.87 15.9 45.79 15.97C45.41 16.36 45.18 16.89 45.18 17.43L45.18 17.89C45.18 18.42 45.41 18.96 45.79 19.34C45.87 19.41 45.94 19.57 45.94 19.72L45.94 20.18C45.94 20.33 45.87 20.48 45.79 20.56C45.41 20.94 45.18 21.48 45.18 22.01L45.18 22.47C45.18 23.01 45.41 23.54 45.79 23.93C45.87 24 45.94 24.15 45.94 24.31L45.94 24.77C45.94 24.92 45.87 25.07 45.79 25.15L45.18 25.76ZM51.3 20.64C51.3 23.47 49.38 25.91 46.71 26.6L46.71 26.3L46.86 26.14C47.24 25.76 47.47 25.23 47.47 24.69L47.47 24.23C47.47 23.7 47.24 23.16 46.86 22.78C46.78 22.7 46.71 22.55 46.71 22.4L46.71 21.94C46.71 21.78 46.78 21.63 46.86 21.56C47.24 21.17 47.47 20.64 47.47 20.1L47.47 19.64C47.47 19.11 47.24 18.57 46.86 18.19C46.78 18.11 46.71 17.96 46.71 17.81L46.71 17.35C46.71 17.2 46.78 17.04 46.86 16.97C47.24 16.59 47.47 16.05 47.47 15.52L47.47 15.06C47.47 14.52 47.24 13.99 46.86 13.6C46.78 13.53 46.71 13.37 46.71 13.22L46.71 12.76C46.71 12.61 46.78 12.46 46.86 12.38C47.24 12 47.47 11.46 47.47 10.93L47.47 10.47C47.47 9.93 47.24 9.4 46.86 9.02L46.71 8.86L46.71 8.56C49.38 9.25 51.3 11.69 51.3 14.52L51.3 20.64Z" fill="#F4976E" fill-opacity="1.000000" fill-rule="nonzero"/>
</svg>
