<svg width="48.000000" height="64.000000" viewBox="0 0 48 64" fill="none" xmlns="http://www.w3.org/2000/svg" xmlns:xlink="http://www.w3.org/1999/xlink">
	<desc>
			Created with Pixso.
	</desc>
	<defs/>
	<path id="Vector" d="M2.33 60.6L3.25 63.23C3.41 63.74 4 64 5 64L43 64C44 64 44.58 63.74 44.75 63.23L45.66 60.6C46.91 60.6 48 59.5 48 58.22L48 57.03C48 55.76 46.91 54.66 45.66 54.66L44.5 54.66L44.5 29.96C44.5 29.45 44.16 29.11 43.66 29.11L41.66 29.11L41.66 12.64C41.66 12.13 41.33 11.79 40.83 11.79L34.91 11.79L34.91 0.84C34.91 0.33 34.58 0 34.08 0L13.91 0C13.41 0 13.08 0.33 13.08 0.84L13.08 11.79L7.16 11.79C6.66 11.79 6.33 12.13 6.33 12.64L6.33 29.19L4.33 29.19C3.83 29.19 3.5 29.53 3.5 30.04L3.5 54.74L2.33 54.74C1.08 54.74 0 55.85 0 57.12L0 58.22C0.08 59.5 1.08 60.6 2.33 60.6ZM43.08 62.3L5 62.3C4.91 62.3 4.75 62.3 4.66 62.3L4.08 60.6L43.91 60.6L43.33 62.3C43.25 62.3 43.16 62.3 43.08 62.3ZM35.83 43.88C35.33 43.88 35 44.22 35 44.73C35 46.51 33.58 47.87 31.91 47.87C30.16 47.87 28.83 46.42 28.83 44.73C28.83 44.22 28.5 43.88 28 43.88C27.5 43.88 27.16 44.22 27.16 44.73C27.16 46.51 25.75 47.87 24.08 47.87C22.41 47.87 21 46.42 21 44.73C21 44.22 20.66 43.88 20.16 43.88C19.66 43.88 19.33 44.22 19.33 44.73C19.33 46.51 17.91 47.87 16.25 47.87C14.5 47.87 13.16 46.42 13.16 44.73C13.16 44.22 12.83 43.88 12.33 43.88C11.83 43.88 11.5 44.22 11.5 44.73C11.5 46.51 10.08 47.87 8.41 47.87C6.66 47.87 5.33 46.42 5.33 44.73L5.33 40.14C6.16 40.91 7.25 41.33 8.41 41.33C10.08 41.33 11.5 40.48 12.33 39.21C13.16 40.48 14.66 41.33 16.25 41.33C17.91 41.33 19.33 40.48 20.16 39.21C21 40.48 22.5 41.33 24.08 41.33C25.66 41.33 27.16 40.48 28 39.21C28.83 40.48 30.33 41.33 31.91 41.33C33.58 41.33 35 40.48 35.83 39.21C36.66 40.48 38.16 41.33 39.75 41.33C40.91 41.33 42 40.91 42.83 40.14L42.83 44.81C42.83 46.59 41.41 47.95 39.75 47.95C38 47.95 36.66 46.51 36.66 44.81C36.66 44.3 36.33 43.88 35.83 43.88ZM33.33 1.69L33.33 5.26C33.33 6.7 32.16 7.8 30.83 7.8C29.5 7.8 28.33 6.62 28.33 5.26C28.33 4.75 28 4.41 27.5 4.41C27 4.41 26.66 4.75 26.66 5.26C26.66 6.7 25.5 7.8 24.16 7.8C22.75 7.8 21.66 6.62 21.66 5.26C21.66 4.75 21.33 4.41 20.83 4.41C20.33 4.41 20 4.75 20 5.26C20 6.7 18.83 7.8 17.5 7.8C16.16 7.8 15 6.62 15 5.26L15 1.69L33.33 1.69ZM14.75 8.65C15.41 9.25 16.33 9.59 17.25 9.59C18.66 9.59 19.83 8.91 20.58 7.8C21.33 8.82 22.58 9.59 23.91 9.59C25.33 9.59 26.5 8.91 27.25 7.8C28 8.82 29.25 9.59 30.58 9.59C31.5 9.59 32.41 9.25 33.08 8.74L33.08 11.88L14.75 11.88L14.75 8.65ZM40 13.49L40 19.86C40 21.3 38.83 22.4 37.5 22.4C36.16 22.4 35 21.22 35 19.86C35 19.35 34.66 19.01 34.16 19.01C33.66 19.01 33.33 19.35 33.33 19.86C33.33 21.3 32.16 22.4 30.83 22.4C29.5 22.4 28.33 21.22 28.33 19.86C28.33 19.35 28 19.01 27.5 19.01C27 19.01 26.66 19.35 26.66 19.86C26.66 21.3 25.5 22.4 24.16 22.4C22.75 22.4 21.66 21.22 21.66 19.86C21.66 19.35 21.33 19.01 20.83 19.01C20.33 19.01 20 19.35 20 19.86C20 21.3 18.83 22.4 17.5 22.4C16.16 22.4 15 21.22 15 19.86C15 19.35 14.66 19.01 14.16 19.01C13.66 19.01 13.33 19.35 13.33 19.86C13.33 21.3 12.16 22.4 10.83 22.4C9.5 22.4 8.33 21.22 8.33 19.86L8.33 13.58L40 13.58L40 13.49ZM8.08 23.17C8.75 23.76 9.66 24.1 10.58 24.1C12 24.1 13.16 23.42 13.91 22.32C14.66 23.34 15.91 24.1 17.25 24.1C18.66 24.1 19.83 23.42 20.58 22.32C21.33 23.34 22.58 24.1 23.91 24.1C25.33 24.1 26.5 23.42 27.25 22.32C28 23.34 29.25 24.1 30.58 24.1C31.91 24.1 33.16 23.42 33.91 22.32C34.66 23.34 35.91 24.1 37.25 24.1C38.16 24.1 39.08 23.76 39.75 23.25L39.75 29.19L8.08 29.19L8.08 23.17ZM42.91 30.81L42.91 36.41C42.91 38.19 41.5 39.55 39.83 39.55C38.08 39.55 36.75 38.11 36.75 36.41C36.75 35.9 36.41 35.56 35.91 35.56C35.41 35.56 35.08 35.9 35.08 36.41C35.08 38.19 33.66 39.55 32 39.55C30.25 39.55 28.91 38.11 28.91 36.41C28.91 35.9 28.58 35.56 28.08 35.56C27.58 35.56 27.25 35.9 27.25 36.41C27.25 38.19 25.83 39.55 24.16 39.55C22.5 39.55 21.08 38.11 21.08 36.41C21.08 35.9 20.75 35.56 20.25 35.56C19.75 35.56 19.41 35.9 19.41 36.41C19.41 38.19 18 39.55 16.33 39.55C14.58 39.55 13.25 38.11 13.25 36.41C13.25 35.9 12.91 35.56 12.41 35.56C11.91 35.56 11.58 35.9 11.58 36.41C11.58 38.19 10.16 39.55 8.5 39.55C6.75 39.55 5.41 38.11 5.41 36.41L5.41 30.89L42.91 30.89L42.91 30.81ZM5.16 48.38C6 49.14 7.08 49.57 8.25 49.57C9.91 49.57 11.33 48.72 12.16 47.44C13 48.72 14.5 49.57 16.08 49.57C17.75 49.57 19.16 48.72 20 47.44C20.83 48.72 22.33 49.57 23.91 49.57C25.5 49.57 27 48.72 27.83 47.44C28.66 48.72 30.16 49.57 31.75 49.57C33.41 49.57 34.83 48.72 35.66 47.44C36.5 48.72 38 49.57 39.58 49.57C40.75 49.57 41.83 49.14 42.66 48.38L42.66 54.66L5.16 54.66L5.16 48.38ZM1.75 57.12C1.75 56.78 2.08 56.44 2.41 56.44L45.75 56.44C46.08 56.44 46.41 56.78 46.41 57.12L46.41 58.22C46.41 58.56 46.08 58.9 45.75 58.9L2.41 58.9C2.08 58.9 1.75 58.56 1.75 58.22L1.75 57.12Z" fill="#E58383" fill-opacity="1.000000" fill-rule="nonzero"/>
</svg>
