<svg width="56.638184" height="56.363525" viewBox="0 0 56.6382 56.3635" fill="none" xmlns="http://www.w3.org/2000/svg" xmlns:xlink="http://www.w3.org/1999/xlink">
	<desc>
			Created with Pixso.
	</desc>
	<defs/>
	<path id="Vector" d="M56.63 28.04L56.63 20.73L44.67 20.73C44.94 20.46 45.21 20.18 45.4 19.82L47.04 19.82C49.33 19.82 51.15 17.99 51.15 15.71C51.15 13.42 49.33 11.6 47.04 11.6L46.58 11.6L45.67 11.6L33.8 11.6L33.8 16.16C33.8 17.99 34.53 19.54 35.71 20.73L25.57 20.73L25.57 28.04L27.4 28.04L27.4 26.21L28.68 26.21L30.51 29.87L31.97 29.87L31.97 52.7C31.97 53.71 31.15 54.53 30.14 54.53C29.14 54.53 28.31 53.71 28.31 52.7L26.49 52.7C26.49 54.71 28.13 56.36 30.14 56.36C32.15 56.36 33.8 54.71 33.8 52.7L33.8 39.92L48.41 39.92L48.41 52.7C48.41 54.71 50.06 56.36 52.07 56.36C54.08 56.36 55.72 54.71 55.72 52.7L53.89 52.7C53.89 53.71 53.07 54.53 52.07 54.53C51.06 54.53 50.24 53.71 50.24 52.7L50.24 29.87L51.7 29.87L53.53 26.21L54.81 26.21L54.81 28.04L56.63 28.04ZM47.04 13.42C48.32 13.42 49.33 14.43 49.33 15.71C49.33 16.99 48.32 17.99 47.04 17.99L46.31 17.99C46.49 17.44 46.58 16.8 46.58 16.16L46.58 13.42L47.04 13.42ZM35.62 16.16L35.62 13.42L44.76 13.42L44.76 16.16C44.76 18.72 42.75 20.73 40.19 20.73C37.63 20.73 35.62 18.72 35.62 16.16ZM33.8 38.09L33.8 36.26L48.41 36.26L48.41 38.09L33.8 38.09ZM48.41 34.43L33.8 34.43L33.8 29.87L48.41 29.87L48.41 34.43ZM50.6 28.04L31.6 28.04L30.69 26.21L51.52 26.21L50.6 28.04ZM27.4 24.39L27.4 22.56L54.81 22.56L54.81 24.39L27.4 24.39Z" fill="#8A8CDC" fill-opacity="1.000000" fill-rule="nonzero"/>
	<path id="Vector" d="M21.92 53.62C21.92 54.17 21.55 54.53 21.01 54.53C20.46 54.53 20.09 54.17 20.09 53.62L20.09 39L21.01 39C22.01 39 22.83 38.18 22.83 37.17L22.83 35.35C22.83 34.34 22.01 33.52 21.01 33.52L6.39 33.52L5.48 14.34C5.48 12.78 4.29 11.6 2.74 11.6C1.18 11.6 0 12.78 0 14.34L0 15.25L1.82 15.25L1.82 14.34C1.82 13.79 2.19 13.42 2.74 13.42C3.28 13.42 3.65 13.79 3.65 14.34L4.56 34.43L4.56 39L6.39 39L6.39 53.62C6.39 54.17 6.02 54.53 5.48 54.53C4.93 54.53 4.56 54.17 4.56 53.62L4.56 52.7L2.74 52.7L2.74 53.62C2.74 55.17 3.92 56.36 5.48 56.36C7.03 56.36 8.22 55.17 8.22 53.62L8.22 39L18.27 39L18.27 53.62C18.27 55.17 19.45 56.36 21.01 56.36C22.56 56.36 23.75 55.17 23.75 53.62L23.75 52.7L21.92 52.7L21.92 53.62ZM6.39 35.35L21.01 35.35L21.01 37.17L6.39 37.17L6.39 35.35Z" fill="#8A8CDC" fill-opacity="1.000000" fill-rule="nonzero"/>
	<path id="Vector" d="M36.54 4.84C35.99 5.38 35.62 6.21 35.62 7.03C35.62 7.85 35.99 8.67 36.54 9.22L37.72 10.41L39 9.13L37.81 7.94C37.54 7.67 37.45 7.39 37.45 7.03C37.45 6.66 37.54 6.39 37.81 6.12L38.36 5.57C38.91 5.02 39.28 4.2 39.28 3.37C39.28 2.55 38.91 1.73 38.36 1.18L37.18 0L35.9 1.27L37.08 2.46C37.36 2.74 37.45 3.01 37.45 3.37C37.45 3.74 37.36 4.01 37.08 4.29L36.54 4.84Z" fill="#8A8CDC" fill-opacity="1.000000" fill-rule="nonzero"/>
	<path id="Vector" d="M42.02 4.84C41.47 5.38 41.1 6.21 41.1 7.03C41.1 7.85 41.47 8.67 42.02 9.22L43.2 10.41L44.48 9.13L43.3 7.94C43.02 7.67 42.93 7.39 42.93 7.03C42.93 6.66 43.02 6.39 43.3 6.12L43.84 5.57C44.39 5.02 44.76 4.2 44.76 3.37C44.76 2.55 44.39 1.73 43.84 1.18L42.66 0L41.38 1.27L42.56 2.46C42.84 2.74 42.93 3.01 42.93 3.37C42.93 3.74 42.84 4.01 42.56 4.29L42.02 4.84Z" fill="#8A8CDC" fill-opacity="1.000000" fill-rule="nonzero"/>
</svg>
